# xmcd CD database file
#
# Track frame offsets:
#	150
#	14666
#	27285
#	41928
#	56664
#	71046
#	82137
#	94702
#	108481
#	121154
#	133643
#	147543
#	162823
#	177573
#	190433
#	204033
#	217133
#	232080
#	246599
#	260425
#	273984
#	287630
#	302632
#
# Disc length: 4221 seconds
#
# Revision: 0
# Processed by: cddbd v1.5.2PL0 Copyright (c) Steve Scherf et al.
# Submitted via: CDex 1.70beta2
#
DISCID=6a107b17
DTITLE=Charlie Christian - Jazz Roads CD107 - Swing - Vol.1 (1939-40)
DYEAR=2006
DGENRE=Jazz
TTITLE0=Benny Goodman Sextet - Flying Home 
TTITLE1=Benny Goodman Sextet - Rose Room (In Sunny Roseland) 
TTITLE2=Benny Goodman Sextet - Star Dust 
TTITLE3=Benny Goodman Sextet - Homeward Bound (Flying Home) 
TTITLE4=Benny Goodman Sextet - Memories Of You 
TTITLE5=Benny Goodman Sextet - Soft Winds 
TTITLE6=Benny Goodman Sextet - Seven Come Eleven 
TTITLE7=Benny Goodman And His Orchestra - Honeysuckle Rose 
TTITLE8=Benny Goodman Sextet - Shivers 
TTITLE9=Benny Goodman Sextet - Ac-Dc Current 
TTITLE10=Benny Goodman Sextet - Till Tom Special 
TTITLE11=Benny Goodman Sextet - Gone With 'What' Wind 
TTITLE12=Benny Goodman Sextet - The Sheik 
TTITLE13=Benny Goodman Sextet - Poor Butterfly 
TTITLE14=Benny Goodman Sextet - I Surrender Dear 
TTITLE15=Benny Goodman Sextet - Boy Meets Goy (Grand Slam) 
TTITLE16=Benny Goodman Sextet - Six Appeal 
TTITLE17=Benny Goodman Sextet - These Foolish Things 
TTITLE18=Benny Goodman Sextet - Wholly Cats 
TTITLE19=Benny Goodman Sextet - Wholly Cats 
TTITLE20=Benny Goodman Sextet - Royal Garden Blues 
TTITLE21=Benny Goodman Sextet - As Long As I Live 
TTITLE22=Benny Goodman Sextet - Benny's Bugle 
EXTD=YEAR: 2006
EXTT0=
EXTT1=
EXTT2=
EXTT3=
EXTT4=
EXTT5=
EXTT6=
EXTT7=
EXTT8=
EXTT9=
EXTT10=
EXTT11=
EXTT12=
EXTT13=
EXTT14=
EXTT15=
EXTT16=
EXTT17=
EXTT18=
EXTT19=
EXTT20=
EXTT21=
EXTT22=
PLAYORDER=
